<?xml version="1.0" standalone="no"?>
<!DOCTYPE svg PUBLIC "-//W3C//DTD SVG 20010904//EN"
 "http://www.w3.org/TR/2001/REC-SVG-20010904/DTD/svg10.dtd">
<svg version="1.0" xmlns="http://www.w3.org/2000/svg"
 width="128.000000pt" height="128.000000pt" viewBox="0 0 128.000000 128.000000"
 preserveAspectRatio="xMidYMid meet">
<metadata>
Created by potrace 1.14, written by Peter Selinger 2001-2017
</metadata>
<g transform="translate(0.000000,128.000000) scale(0.100000,-0.100000)"
fill="#000000" stroke="none">
<path d="M190 1268 c-65 -19 -125 -71 -163 -141 -22 -42 -22 -45 -22 -487 0
-443 0 -445 23 -487 31 -60 74 -100 134 -128 l52 -24 417 -1 c360 0 424 2 465
16 65 22 116 65 150 127 l29 52 0 445 c0 439 0 446 -22 486 -28 52 -82 106
-130 130 -35 18 -70 19 -468 21 -267 1 -443 -2 -465 -9z"/>
</g>
</svg>
