<?xml version="1.0" standalone="no"?>
<!DOCTYPE svg PUBLIC "-//W3C//DTD SVG 20010904//EN"
 "http://www.w3.org/TR/2001/REC-SVG-20010904/DTD/svg10.dtd">
<svg version="1.0" xmlns="http://www.w3.org/2000/svg"
 width="305.000000pt" height="305.000000pt" viewBox="0 0 305.000000 305.000000"
 preserveAspectRatio="xMidYMid meet">
<metadata>
Created by potrace 1.14, written by Peter Selinger 2001-2017
</metadata>
<g transform="translate(0.000000,305.000000) scale(0.100000,-0.100000)"
fill="#000000" stroke="none">
<path d="M1203 2894 l-28 -26 29 21 c52 38 137 21 165 -33 20 -37 8 -102 -24
-136 l-27 -28 21 -67 c12 -37 21 -70 21 -74 0 -4 -37 -5 -82 -3 -74 4 -85 2
-101 -16 -22 -24 -14 -87 13 -102 11 -6 15 -18 12 -38 l-4 -28 -66 8 c-97 12
-112 17 -112 34 0 9 9 23 19 32 20 17 27 28 114 187 42 76 47 92 37 109 -7 10
-16 40 -20 65 -7 43 -8 43 -9 11 0 -19 6 -47 14 -63 13 -26 11 -31 -64 -155
-42 -70 -83 -127 -91 -127 -24 0 -31 90 -9 109 21 18 41 105 33 145 -7 36 -36
64 -60 59 -40 -7 -58 -53 -65 -166 -7 -100 -64 -529 -90 -671 -11 -61 -11 -64
11 -81 l22 -17 -25 -40 c-53 -84 -69 -207 -42 -314 6 -23 2 -28 -59 -58 -90
-44 -145 -109 -181 -212 -24 -70 -27 -90 -23 -162 3 -45 9 -89 12 -99 6 -13
-6 -23 -56 -47 -164 -78 -249 -225 -233 -405 15 -177 102 -275 277 -312 94
-20 188 -14 343 22 144 34 284 38 445 12 58 -9 200 -25 315 -34 412 -32 757 1
933 90 62 31 129 97 153 149 36 80 21 238 -31 323 -31 49 -114 120 -176 149
-30 14 -54 27 -54 29 0 2 7 23 15 46 28 80 15 222 -30 308 -26 50 -104 124
-164 154 l-54 27 -1 96 c-1 52 2 95 5 95 4 0 12 37 18 83 63 443 94 627 112
671 25 60 22 128 -9 158 -27 28 -53 17 -82 -33 -20 -36 -22 -51 -17 -110 4
-50 1 -79 -10 -109 -28 -70 -36 -58 -87 142 l-33 127 23 22 c13 12 24 26 24
31 0 5 -14 -7 -30 -26 l-30 -34 31 -143 c17 -79 37 -154 46 -167 24 -38 10
-54 -39 -47 -24 4 -59 9 -78 11 -19 3 -46 7 -60 9 -14 2 -61 9 -105 15 -44 7
-83 14 -87 16 -7 4 8 33 104 207 33 60 57 111 55 114 -3 2 -18 -17 -33 -44
-50 -87 -155 -243 -163 -243 -9 0 -44 119 -57 192 -5 31 -2 43 20 69 39 46 36
101 -8 145 -29 29 -41 34 -81 34 -40 0 -52 -5 -81 -34 -37 -37 -43 -74 -23
-131 10 -26 8 -37 -10 -73 -12 -23 -25 -42 -29 -41 -4 0 -36 15 -71 32 l-64
32 -19 83 -20 82 26 31 c40 47 37 110 -8 155 -29 29 -41 34 -79 34 -36 0 -52
-6 -74 -26z m-195 -146 c7 -7 12 -26 12 -42 l0 -31 -20 25 c-31 39 -24 80 8
48z m706 -23 c54 -35 58 -116 10 -166 l-26 -28 17 -73 c41 -167 107 -335 158
-398 45 -57 110 -75 165 -46 15 8 62 51 105 95 70 73 99 98 82 71 -3 -6 -8
-57 -10 -114 -2 -57 -8 -113 -14 -124 -6 -12 -11 -45 -11 -74 0 -53 -22 -186
-34 -206 -25 -40 -425 -78 -553 -52 -26 5 -95 17 -153 26 -105 16 -315 79
-422 127 -90 41 -89 37 -56 249 15 101 31 201 35 222 l8 40 18 -27 c10 -15 15
-32 12 -38 -4 -5 -3 -8 2 -7 4 1 29 -19 54 -45 39 -40 52 -47 84 -47 84 0 201
109 301 281 95 161 94 160 78 189 -7 14 -13 42 -14 63 0 77 97 125 164 82z
m622 -171 c-3 -9 -6 -31 -6 -49 0 -18 -9 -43 -20 -56 -17 -21 -21 -22 -30 -9
-13 19 -7 95 10 115 17 21 54 20 46 -1z m-1108 -1023 c48 -35 91 -85 114 -136
20 -43 23 -66 23 -165 0 -107 -2 -119 -29 -174 -74 -150 -225 -208 -339 -129
-122 85 -173 240 -136 412 13 61 70 145 124 183 69 49 182 53 243 9z m778 7
c58 -27 127 -118 150 -196 26 -87 14 -208 -28 -290 -110 -218 -352 -209 -456
17 -23 48 -26 70 -27 156 0 97 1 102 40 180 39 77 77 116 140 145 39 17 133
11 181 -12z m-616 -763 c91 -4 248 -2 350 3 164 9 187 9 203 -5 22 -21 22 -28
-5 -63 -60 -82 -235 -183 -351 -203 -164 -28 -351 41 -489 179 -53 53 -55 59
-31 86 15 17 27 19 88 14 38 -3 144 -8 235 -11z"/>
<path d="M1496 2017 c-51 -29 -76 -77 -76 -147 0 -154 161 -195 230 -59 40 77
12 187 -54 214 -46 19 -54 19 -100 -8z"/>
<path d="M1091 1984 c-12 -15 -21 -38 -21 -51 0 -34 42 -73 80 -73 38 0 80 39
80 73 0 42 -36 77 -80 77 -30 0 -43 -6 -59 -26z"/>
<path d="M1894 1877 c-53 -46 -23 -130 46 -130 69 0 104 80 55 128 -30 31 -66
32 -101 2z"/>
<path d="M1065 1409 c-30 -15 -64 -73 -76 -131 -29 -131 55 -268 145 -238 44
14 71 45 90 103 20 60 20 99 1 164 -26 87 -98 132 -160 102z"/>
<path d="M1860 1408 c-13 -7 -37 -37 -52 -67 -74 -142 9 -340 127 -301 57 19
95 93 95 185 0 64 -24 135 -54 164 -29 27 -83 36 -116 19z"/>
<path d="M2053 2803 c9 -2 23 -2 30 0 6 3 -1 5 -18 5 -16 0 -22 -2 -12 -5z"/>
<path d="M1998 2789 c-10 -5 -23 -20 -29 -32 l-10 -22 18 21 c10 12 27 26 38
32 11 6 16 11 10 11 -5 0 -18 -4 -27 -10z"/>
<path d="M2101 2798 c2 -2 19 -16 38 -33 28 -25 32 -26 22 -8 -11 21 -40 43
-57 43 -4 0 -5 -1 -3 -2z"/>
<path d="M1952 2690 c-1 -19 6 -46 14 -60 10 -16 13 -18 8 -5 -4 11 -10 38
-14 60 l-7 40 -1 -35z"/>
</g>
</svg>
